<mxfile host="app.diagrams.net" modified="2021-06-16T03:39:51.761Z" agent="5.0 (Macintosh; Intel Mac OS X 10_15_5) AppleWebKit/537.36 (KHTML, like Gecko) Chrome/91.0.4472.77 Safari/537.36" etag="gF3L0vK5LBQ8oLO8VyTJ" version="14.7.6" type="github">
  <diagram id="WANb2gcBHVUbbiMHorg9" name="第 1 页">
    <mxGraphModel dx="1166" dy="676" grid="1" gridSize="10" guides="1" tooltips="1" connect="1" arrows="1" fold="1" page="1" pageScale="1" pageWidth="827" pageHeight="1169" math="0" shadow="0">
      <root>
        <mxCell id="0" />
        <mxCell id="1" parent="0" />
        <mxCell id="DnrRSFtmFWLPhJW0hfXQ-3" value="" style="edgeStyle=orthogonalEdgeStyle;rounded=0;orthogonalLoop=1;jettySize=auto;html=1;" edge="1" parent="1" source="DnrRSFtmFWLPhJW0hfXQ-1" target="DnrRSFtmFWLPhJW0hfXQ-2">
          <mxGeometry relative="1" as="geometry" />
        </mxCell>
        <mxCell id="DnrRSFtmFWLPhJW0hfXQ-1" value="开始&lt;br&gt;lock.lock()" style="ellipse;whiteSpace=wrap;html=1;" vertex="1" parent="1">
          <mxGeometry x="310" y="80" width="100" height="50" as="geometry" />
        </mxCell>
        <mxCell id="DnrRSFtmFWLPhJW0hfXQ-7" value="" style="edgeStyle=orthogonalEdgeStyle;rounded=0;orthogonalLoop=1;jettySize=auto;html=1;" edge="1" parent="1" source="DnrRSFtmFWLPhJW0hfXQ-2" target="DnrRSFtmFWLPhJW0hfXQ-6">
          <mxGeometry relative="1" as="geometry" />
        </mxCell>
        <mxCell id="DnrRSFtmFWLPhJW0hfXQ-2" value="进入同步代码块" style="whiteSpace=wrap;html=1;" vertex="1" parent="1">
          <mxGeometry x="300" y="205" width="120" height="45" as="geometry" />
        </mxCell>
        <mxCell id="DnrRSFtmFWLPhJW0hfXQ-9" value="" style="edgeStyle=orthogonalEdgeStyle;rounded=0;orthogonalLoop=1;jettySize=auto;html=1;" edge="1" parent="1" source="DnrRSFtmFWLPhJW0hfXQ-6" target="DnrRSFtmFWLPhJW0hfXQ-8">
          <mxGeometry relative="1" as="geometry" />
        </mxCell>
        <mxCell id="DnrRSFtmFWLPhJW0hfXQ-10" value="是" style="edgeLabel;html=1;align=center;verticalAlign=middle;resizable=0;points=[];" vertex="1" connectable="0" parent="DnrRSFtmFWLPhJW0hfXQ-9">
          <mxGeometry x="-0.2111" y="-2" relative="1" as="geometry">
            <mxPoint as="offset" />
          </mxGeometry>
        </mxCell>
        <mxCell id="DnrRSFtmFWLPhJW0hfXQ-12" value="" style="edgeStyle=orthogonalEdgeStyle;rounded=0;orthogonalLoop=1;jettySize=auto;html=1;" edge="1" parent="1" source="DnrRSFtmFWLPhJW0hfXQ-6" target="DnrRSFtmFWLPhJW0hfXQ-11">
          <mxGeometry relative="1" as="geometry" />
        </mxCell>
        <mxCell id="DnrRSFtmFWLPhJW0hfXQ-13" value="否" style="edgeLabel;html=1;align=center;verticalAlign=middle;resizable=0;points=[];" vertex="1" connectable="0" parent="DnrRSFtmFWLPhJW0hfXQ-12">
          <mxGeometry x="-0.0889" y="2" relative="1" as="geometry">
            <mxPoint y="1" as="offset" />
          </mxGeometry>
        </mxCell>
        <mxCell id="DnrRSFtmFWLPhJW0hfXQ-6" value="&lt;span&gt;获取锁资源&lt;/span&gt;" style="rhombus;whiteSpace=wrap;html=1;" vertex="1" parent="1">
          <mxGeometry x="320" y="312.5" width="80" height="80" as="geometry" />
        </mxCell>
        <mxCell id="DnrRSFtmFWLPhJW0hfXQ-17" value="" style="edgeStyle=orthogonalEdgeStyle;rounded=0;orthogonalLoop=1;jettySize=auto;html=1;" edge="1" parent="1" source="DnrRSFtmFWLPhJW0hfXQ-8" target="DnrRSFtmFWLPhJW0hfXQ-16">
          <mxGeometry relative="1" as="geometry" />
        </mxCell>
        <mxCell id="DnrRSFtmFWLPhJW0hfXQ-8" value="进入业务代码继续执行" style="whiteSpace=wrap;html=1;" vertex="1" parent="1">
          <mxGeometry x="300" y="482.5" width="120" height="47.5" as="geometry" />
        </mxCell>
        <mxCell id="DnrRSFtmFWLPhJW0hfXQ-11" value="进入同步队列等待锁资源释放, 被唤醒" style="whiteSpace=wrap;html=1;" vertex="1" parent="1">
          <mxGeometry x="490" y="322.5" width="120" height="60" as="geometry" />
        </mxCell>
        <mxCell id="DnrRSFtmFWLPhJW0hfXQ-16" value="结束&lt;br&gt;lock.unlock()" style="ellipse;whiteSpace=wrap;html=1;" vertex="1" parent="1">
          <mxGeometry x="300" y="603.75" width="120" height="46.25" as="geometry" />
        </mxCell>
      </root>
    </mxGraphModel>
  </diagram>
</mxfile>
